<?xml version="1.0" standalone="no"?><!DOCTYPE svg PUBLIC "-//W3C//DTD SVG 1.1//EN" "http://www.w3.org/Graphics/SVG/1.1/DTD/svg11.dtd"><svg t="1721842388758" class="icon" viewBox="0 0 1024 1024" version="1.1" xmlns="http://www.w3.org/2000/svg" p-id="9006" xmlns:xlink="http://www.w3.org/1999/xlink" width="200" height="200"><path d="M512 512m-348.835165 0a348.835165 348.835165 0 1 0 697.67033 0 348.835165 348.835165 0 1 0-697.67033 0Z" fill="#020202" p-id="9007"></path><path d="M512 755.059341c-174.417582 0-319.578022-128.281319-344.896703-295.947253-2.813187 17.441758-3.938462 34.883516-3.938462 52.887912 0 192.421978 156.413187 348.835165 348.835165 348.835165s348.835165-156.413187 348.835165-348.835165c0-18.004396-1.125275-35.446154-3.938462-52.887912-25.318681 167.665934-170.479121 295.947253-344.896703 295.947253z" fill="#F90606" p-id="9008"></path><path d="M539.006593 390.47033a90.584615 66.391209 90 1 0 132.782418 0 90.584615 66.391209 90 1 0-132.782418 0Z" fill="#FFFFFF" p-id="9009"></path><path d="M367.402198 390.47033a90.584615 63.578022 90 1 0 127.156044 0 90.584615 63.578022 90 1 0-127.156044 0Z" fill="#FFFFFF" p-id="9010"></path><path d="M444.483516 380.905495a33.195604 19.692308 90 1 0 39.384616 0 33.195604 19.692308 90 1 0-39.384616 0Z" fill="#070707" p-id="9011"></path><path d="M473.740659 380.905495m-4.501099 0a4.501099 4.501099 0 1 0 9.002198 0 4.501099 4.501099 0 1 0-9.002198 0Z" fill="#FFFFFF" p-id="9012"></path><path d="M605.397802 364.589011c15.753846 0 28.694505 22.505495 28.694506 50.074725h9.564835c0-36.571429-16.879121-66.391209-38.259341-66.391209-20.817582 0-38.259341 29.81978-38.25934 66.391209h9.564835c0-28.131868 12.940659-50.074725 28.694505-50.074725z" fill="#0F0F0F" p-id="9013"></path><path d="M736.492308 639.718681c0 25.881319-104.087912 71.454945-224.492308 71.454945s-211.551648-45.573626-211.551648-71.454945 97.336264-46.698901 217.740659-46.698901 218.303297 20.817582 218.303297 46.698901z" fill="#FCF865" p-id="9014"></path></svg>