<svg t="1727110556876" class="icon" viewBox="0 0 1024 1024" version="1.1" xmlns="http://www.w3.org/2000/svg" p-id="5752" width="200" height="200"><path d="M512 0c282.752 0 512 229.248 512 512S794.752 1024 512 1024 0 794.752 0 512 229.248 0 512 0z" fill="#32ABD1" p-id="5753"></path><path d="M536.576 785.536h-64c47.36-0.128 85.76-38.528 85.76-85.888v-303.36a84.992 84.992 0 0 0-25.216-60.8l-71.808-71.808a85.5808 85.5808 0 0 0-59.904-25.216h63.104c22.784 0 44.672 8.96 60.8 25.216l71.808 71.936a86.0416 86.0416 0 0 1 25.216 60.8v303.232c0 47.36-38.4 85.76-85.76 85.888z" fill="#FFFFFF" opacity=".7" p-id="5754"></path><path d="M569.088 785.536v-1.024H353.408c-47.36 0-85.888-38.528-85.888-85.888V324.352c0-47.36 38.4-85.888 85.76-85.888h245.376c22.784 0 44.672 8.96 60.672 25.216l71.808 71.936a86.0416 86.0416 0 0 1 25.216 60.8v303.232c0 47.36-38.528 85.888-85.888 85.888h-101.376z" fill="#FFFFFF" p-id="5755"></path><path d="M665.088 443.776l-120.832-95.744a7.0144 7.0144 0 0 0-7.04-0.896c-2.304 0.896-3.84 3.072-3.84 5.504v47.104c-0.128 3.072-2.56 5.632-5.632 5.888-28.16 3.584-152.576 24.832-170.88 125.696-0.512 2.816 1.024 5.632 3.712 6.528 2.688 1.152 5.888 0.512 7.936-1.664 14.976-17.28 43.776-39.936 95.232-46.208 20.864-2.432 41.984-3.584 62.976-3.584 3.456-0.128 6.528 2.56 6.784 6.016v51.712c0 2.432 1.536 4.608 3.84 5.504 2.304 1.024 5.12 0.64 7.04-0.896l120.704-95.872c2.432-1.92 2.944-5.376 1.152-7.936a4.8896 4.8896 0 0 0-1.152-1.152M657.792 699.392H366.208c-7.808 0-14.208-11.392-14.208-25.472v-34.432c0-13.952 6.4-25.472 14.208-25.472H657.92c7.808 0 14.208 11.392 14.208 25.472v34.432c-0.128 13.952-6.528 25.472-14.336 25.472" fill="#32ABD1" p-id="5756"></path></svg>