<?xml version="1.0" standalone="no"?><!DOCTYPE svg PUBLIC "-//W3C//DTD SVG 1.1//EN" "http://www.w3.org/Graphics/SVG/1.1/DTD/svg11.dtd"><svg t="1721856405137" class="icon" viewBox="0 0 1024 1024" version="1.1" xmlns="http://www.w3.org/2000/svg" p-id="4272" xmlns:xlink="http://www.w3.org/1999/xlink" width="200" height="200"><path d="M1009.777778 503.466667l-443.733334-455.111111c-5.688889-5.688889-11.377778 0-11.377777 5.688888v267.377778C8.533333 409.6 2.844444 918.755556 17.066667 932.977778c0 0 45.511111-48.355556 164.977777-113.777778 85.333333-48.355556 224.711111-85.333333 369.777778-102.4v261.688889c0 8.533333 11.377778 11.377778 14.222222 5.688889l443.733334-480.711111z m-398.222222 358.4v-199.111111l-36.977778-2.844445c-221.866667 8.533333-378.311111 73.955556-497.777778 156.444445 76.8-275.911111 267.377778-403.911111 466.488889-438.044445l68.266667-2.844444v-199.111111l312.888888 312.888888s8.533333 5.688889 8.533334 14.222223-8.533333 14.222222-8.533334 14.222222l-312.888888 344.177778z" fill="#1296db" p-id="4273"></path></svg>